<svg xmlns:dc="http://purl.org/dc/elements/1.1/" xmlns:cc="http://creativecommons.org/ns#" xmlns:rdf="http://www.w3.org/1999/02/22-rdf-syntax-ns#" xmlns:svg="http://www.w3.org/2000/svg" xmlns="http://www.w3.org/2000/svg" xmlns:sodipodi="http://sodipodi.sourceforge.net/DTD/sodipodi-0.dtd" xmlns:inkscape="http://www.inkscape.org/namespaces/inkscape" width="272.3251647949219" height="313.38946533203125" version="1.1" inkscape:version="0.47pre4 r22446" sodipodi:docname="New document 6" style=""><rect id="backgroundrect" width="100%" height="100%" x="0" y="0" fill="none" stroke="none"/>
  <title id="title4003">Twenty-Sided Dice</title>
  <defs id="defs3973"/>
  <sodipodi:namedview id="base" pagecolor="#ffffff" bordercolor="#666666" borderopacity="1.0" inkscape:pageopacity="0.0" inkscape:pageshadow="2" inkscape:zoom="0.35" inkscape:cx="-377.40885" inkscape:cy="156.69473" inkscape:document-units="px" inkscape:current-layer="layer1" showgrid="false" inkscape:window-width="1280" inkscape:window-height="950" inkscape:window-x="0" inkscape:window-y="25" inkscape:window-maximized="1"/>
  <metadata id="metadata3976">
    <rdf:RDF>
      <cc:Work rdf:about="">
        <dc:format>image/svg+xml</dc:format>
        <dc:type rdf:resource="http://purl.org/dc/dcmitype/StillImage"/>
        <cc:license rdf:resource="http://creativecommons.org/licenses/publicdomain/"/>
        <dc:title>Twenty-Sided Dice</dc:title>
        <dc:creator>
          <cc:Agent>
            <dc:title>Brian Burger/Wirelizard Design</dc:title>
          </cc:Agent>
        </dc:creator>
        <dc:description>Twenty-sided dice (d20) as used in RPGs and wargaming.</dc:description>
      </cc:Work>
      <cc:License rdf:about="http://creativecommons.org/licenses/publicdomain/">
        <cc:permits rdf:resource="http://creativecommons.org/ns#Reproduction"/>
        <cc:permits rdf:resource="http://creativecommons.org/ns#Distribution"/>
        <cc:permits rdf:resource="http://creativecommons.org/ns#DerivativeWorks"/>
      </cc:License>
    </rdf:RDF>
  </metadata>
  
<g class="currentLayer" style=""><title>Layer 1</title><g inkscape:label="Layer 1" inkscape:groupmode="layer" id="layer1" class="selected" fill="#dadada" fill-opacity="1">
    <path style="stroke: none;" d="m133.23552518066407,0.0007400488281064099 c-0.57042,0.019400000000000004 -1.22613,0.22811000000000003 -1.58536,0.7317400000000002 l-80.67309,96.52739 c-1.34246,1.6806400000000004 -1.43314,2.05568 0.36590000000000006,2.07325 l161.59017,-0.42695000000000005 c2.22078,-0.18146000000000004 2.23054,-0.07020000000000001 0.7926500000000001,-1.9512800000000001 l-79.2707,-96.52721 c-0.16389000000000004,-0.25521 -0.6487400000000002,-0.4409700000000001 -1.21957,-0.42694000000000004 zm15.48842,8.59792 l72.74609,88.47818 c0.97444,1.1817 1.21194,1.24884 2.92697,0.42695000000000005 l38.35462,-17.56151 c2.51233,-1.13388 2.1642,-1.3661 0.48784000000000005,-2.50017 L148.7239451806641,8.598660048828151 zm-33.96442,3.23171 c-0.03400000000000001,-0.07220000000000001 -0.6255000000000001,0.36995000000000006 -1.95133,1.28062 l-105.61284,69.5143 l33.04973,15.00045 c1.7241300000000002,0.56842 2.23917,0.5988500000000001 3.35363,-0.7927900000000001 l69.6974,-83.23414 c0.9823799999999999,-1.13662 1.49615,-1.6962400000000002 1.46341,-1.76844 zm33.41562,35.24496 c4.66845,0.00019999999999999998 8.40589,1.60961 11.15883,4.8173200000000005 c2.7516700000000003,3.19172 4.30469,7.75185 4.69539,13.65895 c0.38920000000000005,5.8913 -0.59833,10.45126 -2.92704,13.65895 c-2.32984,3.19171 -5.8196200000000005,4.75624 -10.48806,4.75624 c-4.684620000000001,0 -8.40725,-1.56453 -11.15899,-4.75624 c-2.7526900000000003,-3.20769 -4.30574,-7.76765 -4.6951600000000004,-13.65895 c-0.39070000000000005,-5.9071 0.59706,-10.46723 2.92689,-13.65895 c2.32872,-3.20771 5.80344,-4.81712 10.48814,-4.8173200000000005 zm-30.67179,0.3658700000000001 c4.2558,0.00019999999999999998 7.44666,0.9313400000000001 9.51251,2.80497 c2.0817,1.8738100000000002 2.82561,4.45458 2.3170800000000003,7.80511 c-0.29394000000000003,1.93743 -1.06122,3.74393 -2.3170800000000003,5.42709 c-1.25346,1.66736 -3.6830000000000003,3.95778 -7.31726,6.76841 l-8.59774,6.64662 l15.61021,0 l-0.97563,6.70753 l-25.85443,0 l1.03658,-6.70753 l14.6956,-11.46374 c1.31806,-1.04803 2.3410800000000003,-2.04846 3.04885,-3.04888 c0.70753,-1.00042 1.11652,-2.09099 1.2804200000000001,-3.17084 c0.25311,-1.66735 -0.06420000000000002,-3.00827 -1.0364,-4.0245 c-0.95756,-1.01622 -2.41067,-1.52434 -4.26858,-1.52453 c-1.42924,0.00018999999999999998 -3.02419,0.35649000000000003 -4.81727,0.97563 c-1.79071,0.6035400000000001 -3.73333,1.47634 -5.85386,2.68302 l1.1587,-7.8051200000000005 c2.16791,-0.6827700000000002 4.27197,-1.17507 6.34171,-1.52434 c2.07202,-0.36527000000000004 4.09936,-0.5487000000000001 6.03659,-0.5489 zm31.09863,5.91492 c-1.9691,0 -3.30365,0.9178700000000001 -4.02456,2.7438900000000004 c-0.72196,1.8104 -0.9647000000000001,4.94434 -0.6706900000000002,9.39052 c0.29703,4.49399 0.9268200000000001,7.6096 1.8901500000000002,9.45161 c0.96343,1.8420100000000001 2.42144,2.80495 4.39046,2.80495 c1.95323,0 3.30466,-0.9629400000000001 4.02448,-2.80495 c0.7198100000000001,-1.8420100000000001 0.96786,-4.95762 0.6708300000000001,-9.45161 c-0.29409,-4.44618 -0.92926,-7.58012 -1.89038,-9.39052 c-0.9463900000000001,-1.8260200000000002 -2.42138,-2.7438900000000004 -4.39029,-2.7438900000000004 zm-87.68571,4.93909 c0.8454200000000001,0 1.43914,0.21170000000000003 1.70731,0.6708300000000001 c0.5305,0.91321 -0.14034000000000002,2.69374 -1.95117,5.4269 c-1.81654,2.74291 -3.90266,5.07488 -6.28068,6.95143 c-2.38434,1.87147 -5.02166,3.2797 -7.86613,4.20754 c-1.8448200000000001,0.6017800000000001 -3.11772,0.7596300000000001 -3.8414200000000003,0.42674 c-0.7303400000000001,-0.3379600000000001 -0.8986700000000002,-1.18188 -0.48785000000000006,-2.4391 c-1.37424,1.4533200000000002 -2.80959,2.7140400000000002 -4.3295,3.71972 c-1.5196800000000001,1.00551 -3.06802,1.78641 -4.69515,2.31714 c-2.42177,0.7898900000000001 -3.88017,0.7323200000000001 -4.26842,-0.18341000000000005 c-0.38855000000000006,-0.9151400000000001 0.30804000000000004,-2.67091 2.01212,-5.24406 c1.6916400000000003,-2.55423 3.58331,-4.7209200000000004 5.73198,-6.46362 c2.13573,-1.73858 4.45613,-2.9866099999999998 6.89049,-3.7806 c1.6271300000000002,-0.5307400000000001 2.76246,-0.6704400000000001 3.41474,-0.3658600000000001 c0.6584000000000001,0.29504 0.8113400000000001,1.02364 0.48777000000000004,2.13412 c1.48686,-1.60806 3.05854,-2.96263 4.75634,-4.08539 c1.69117,-1.12804 3.45992,-2.02016 5.3049,-2.62214 c1.4222700000000001,-0.46382000000000007 2.5694,-0.6683000000000001 3.41467,-0.6706500000000002 zm162.74895,1.46345 c1.45159,1.21467 2.79287,2.47091 4.02448,3.65864 c1.24088,1.18774 2.36754,2.33352 3.35364,3.47581 c2.16633,2.50935 3.31821,4.4606200000000005 3.41481,5.85383 c0.10532000000000001,1.40259 -0.83845,2.12085 -2.8050800000000002,2.13412 c-1.1369,0 -2.4662100000000002,-0.3313200000000001 -3.9633700000000003,-0.91457 c-1.48805,-0.58323 -3.85204,-1.77839 -7.13442,-3.65863 l-7.80513,-4.4514700000000005 l7.98818,9.20769 l-3.96362,0.06050000000000001 l-13.17117,-15.24436 l3.96353,-0.06050000000000001 l13.35402,7.62227 c1.20536,0.6792400000000002 2.23971,1.20062 3.10994,1.52434 c0.8701500000000001,0.3239200000000001 1.6223800000000002,0.49211000000000005 2.25604,0.4878200000000001 c0.9785599999999999,0 1.4409100000000001,-0.3678200000000001 1.46357,-1.03652 c0.031000000000000007,-0.6595400000000001 -0.39577000000000007,-1.5264799999999998 -1.3415300000000001,-2.6221200000000002 c-0.7275,-0.84257 -1.6986000000000003,-1.80552 -2.92695,-2.80497 c-1.21909,-0.99944 -2.6958800000000003,-2.03323 -4.39045,-3.17082 l4.57351,-0.06050000000000001 zm-168.17574,4.08558 c-0.4525,0.04290000000000001 -1.0636,0.13658 -1.7685,0.3658600000000001 c-1.42204,0.46383 -2.68161,1.11067 -3.78064,1.8902200000000002 c-1.11162,0.78381 -2.01498,1.6745700000000001 -2.68295,2.6830100000000003 c-0.6741800000000001,1.01796 -0.8207900000000001,1.71223 -0.42675,2.01234 c0.39377000000000006,0.30011000000000004 1.33446,0.21580000000000002 2.7438900000000004,-0.24392000000000003 c1.40936,-0.45972 2.6626700000000003,-1.09701 3.78055,-1.89039 c1.10528,-0.7888900000000001 2.00888,-1.7259000000000002 2.68303,-2.74388 c0.6679900000000002,-1.00843 0.81421,-1.65646 0.4269200000000001,-1.9512800000000001 c-0.20018,-0.14441000000000004 -0.52328,-0.16392000000000004 -0.9755499999999999,-0.12101 zm-13.2322,4.63429 c-0.36241000000000007,0.027400000000000008 -0.83235,0.11897000000000002 -1.40246,0.30480000000000007 c-1.14031,0.37209000000000003 -2.1409000000000002,0.92723 -3.04877,1.58539 c-0.9210200000000001,0.66246 -1.6945800000000002,1.40806 -2.25636,2.25628 c-0.57423,0.8671400000000001 -0.7297400000000002,1.43672 -0.42677000000000004,1.70736 c0.30907000000000007,0.26128 1.06758,0.18537 2.19528,-0.18342000000000003 c1.14029,-0.3719200000000001 2.12782,-0.8620700000000001 3.04884,-1.52453 c0.92705,-0.6718400000000002 1.68182,-1.4499900000000001 2.25597,-2.31714 c0.56186,-0.84823 0.7361400000000001,-1.3850200000000001 0.42699000000000004,-1.6463 c-0.15414000000000003,-0.13069 -0.4304800000000001,-0.21055000000000001 -0.7927200000000001,-0.18343000000000004 zm226.10426,15.61021 c-0.3281700000000001,0.023500000000000007 -0.8459800000000001,0.21231000000000003 -1.6463100000000002,0.5487000000000001 l-39.39143,17.98845 c-1.39865,0.6349400000000002 -1.3106,1.49059 -0.79271,2.56106 l45.79406,116.16191 l-3.29269,-135.30883 c-0.1015,-1.47966 -0.12292000000000002,-1.99051 -0.6709200000000002,-1.9512900000000002 zm-264.15417,3.59758 l-4.20738,131.65038 l38.78161,-113.90585 c0.5728900000000001,-1.6821900000000003 0.55941,-1.76726 -0.6098200000000001,-2.31714 l-33.96441,-15.42739 zm210.85994,17.07368 l-165.24893,0.42695000000000005 c-2.3616,-0.035100000000000006 -2.26382,-0.03310000000000001 -1.0975000000000001,1.8902 l83.90491,141.52872 c1.41696,2.1597 1.26544,2.09177 2.74399,-0.12100000000000001 l80.61228,-141.77265 c0.70556,-1.12609 1.21085,-1.91401 -0.9147500000000001,-1.9512900000000002 zm6.58556,3.71973 c-0.15225000000000002,0.06450000000000002 -0.31859000000000004,0.63826 -0.7926500000000001,1.52435 l-81.16103,142.80914 c-0.88551,1.5075599999999998 -1.09609,2.04787 1.03665,1.70737 l128.84525,-17.74433 c2.04343,-0.46654 1.98138,-1.1973 1.2806600000000001,-3.2319 L222.26259518066405,110.06515004882812 c-0.32150000000000006,-1.18288 -0.45694,-1.64942 -0.6097200000000002,-1.58542 zm-178.17612,1.34151 c-0.15801000000000004,0.11311000000000002 -0.30011000000000004,0.7149500000000001 -0.6098100000000001,1.5854 l-41.15962,121.16207 c-0.7008700000000001,2.57414 -0.78013,3.5411799999999998 1.8293,4.02453 l123.11343,17.8054 c2.32801,0.3498700000000001 2.03027,-0.8226500000000001 1.4634,-1.95126 L44.330425180664065,111.10167004882811 c-0.52732,-1.06776 -0.6963700000000002,-1.3940000000000001 -0.8536700000000002,-1.28043 zm224.03113,1.5854 l0.24391000000000004,5.06102 l-4.14635,2.6830100000000003 l0.9755499999999999,18.35432 l4.14644,-4.0856 l0.30503,5.00016 l-4.20754,4.02452 l-4.45131,2.8660300000000003 l-1.21957,-23.35446 l-1.95117,1.21954 l0.06020000000000001,1.46346 c-0.91317,-0.12686 -1.80314,-0.0703 -2.68295,0.12101 c-0.88743,0.21015 -1.72397,0.5656800000000001 -2.56108,1.09759 c-1.24356,0.79027 -2.18131,1.7144 -2.80492,2.80497 c-0.6317600000000001,1.09583 -0.91849,2.28104 -0.8537500000000001,3.53668 c0.06580000000000001,1.2939100000000001 0.4418200000000001,2.03051 1.15855,2.25628 c0.7091900000000001,0.24352000000000001 1.7242000000000002,-0.019400000000000004 3.04884,-0.8536900000000002 l1.8904800000000002,-1.21956 l0.24384000000000003,4.75626 l-1.95125,1.21953 c-1.17851,0.7487200000000002 -2.07442,1.62348 -2.62209,2.56106 c-0.5469900000000001,0.9500700000000001 -0.79243,1.9910700000000001 -0.7317900000000002,3.17083 c0.05620000000000001,1.09075 0.38420000000000004,1.77234 0.9755499999999999,2.01216 c0.5916600000000001,0.23979000000000003 1.41513,0.040900000000000006 2.4391,-0.6097800000000001 c0.7559500000000001,-0.4802 1.49788,-1.13311 2.25636,-1.8902100000000002 c0.75843,-0.7570900000000002 1.51881,-1.6166300000000002 2.25606,-2.6221300000000003 l0.24385,5.36603 c-0.9055,0.99476 -1.78294,1.84063 -2.68297,2.6221200000000002 c-0.8999400000000002,0.7813 -1.80504,1.4544700000000002 -2.68303,2.01216 c-2.3651,1.5028700000000002 -4.13281,2.05939 -5.366,1.58542 c-1.24055,-0.45601 -1.94778,-1.8939300000000001 -2.07322,-4.3293 c-0.08540000000000002,-1.6617200000000003 0.10353000000000001,-3.21259 0.6097500000000001,-4.6343 c0.50655,-1.4092 1.30315,-2.71326 2.3781600000000003,-3.84167 c-1.25284,0.28527 -2.22965,0.0352 -2.9268,-0.79261 c-0.7048500000000001,-0.80978 -1.06138,-2.1345 -1.1587,-4.0245 c-0.14439000000000002,-2.81589 0.40147000000000005,-5.39491 1.70734,-7.7442400000000005 c1.3065600000000002,-2.33666 3.32621,-4.35311 5.9758,-6.03668 c0.93466,-0.5939700000000001 1.84983,-1.10538 2.80493,-1.46345 c0.19534000000000004,-0.07600000000000001 0.41248000000000007,-0.11706000000000003 0.6098100000000001,-0.18342000000000003 l0.06020000000000001,-0.06050000000000001 l12.68333,-8.049 zm-259.82475,9.87834 c0.6217000000000001,-0.040900000000000006 1.27353,0.16196000000000005 2.0122,0.6097700000000001 c1.6284,0.98637 2.81966,2.8360000000000003 3.53663,5.54885 c0.045100000000000015,0.17173000000000002 0.08170000000000002,0.37250000000000005 0.12099000000000001,0.5489 l0.24385,-3.23191 l8.78082,5.30515 l-0.36589000000000005,4.45125 l-2.86579,-1.70737 l-1.2806600000000001,15.97609 l2.98799,0.6097700000000001 l-0.30494000000000004,4.3295 l-3.04901,-0.5488900000000001 l-3.04886,-1.8902 l1.64655,-20.36647 l-2.50021,-1.46346 c0.37493000000000004,2.3358600000000003 0.49744000000000005,5.02611 0.24393000000000004,8.1099 c-0.3368100000000001,4.09768 -1.14507,6.9526 -2.37801,8.65879 c-1.23938,1.71401 -2.75483,2.01627 -4.57343,0.9147700000000001 c-0.57615,-0.34909000000000007 -1.11805,-0.77466 -1.6462400000000001,-1.28062 c-0.52827,-0.50597 -1.08301,-1.0919400000000001 -1.5855299999999999,-1.76825 l0.3659800000000001,-4.57341 c0.4904700000000001,0.82051 1.01247,1.49509 1.4634,2.01235 c0.44989000000000007,0.5284099999999999 0.8939200000000002,0.94832 1.3415300000000001,1.21956 c0.96238,0.5828400000000001 1.75344,0.49385000000000007 2.37808,-0.24391000000000004 c0.6236800000000001,-0.7266600000000001 1.01984,-2.11871 1.28058,-4.14646 c-0.41408000000000006,0.3188200000000001 -0.8280000000000001,0.48294000000000004 -1.28058,0.4878100000000001 c-0.45377,0.019500000000000003 -0.95423,-0.11910000000000003 -1.46349,-0.42694000000000004 c-1.2813700000000001,-0.7760400000000001 -2.20461,-2.1269 -2.86585,-4.08539 c-0.6672000000000001,-1.96202 -0.92951,-4.18238 -0.7317900000000002,-6.58557 c0.21841000000000005,-2.6578500000000003 0.8188000000000001,-4.53634 1.8293,-5.60991 c0.50488,-0.53134 1.08554,-0.8117400000000001 1.7074,-0.8537000000000001 zm0.91444,4.45127 c-0.22727000000000003,0.05060000000000001 -0.44006000000000006,0.21267 -0.6095700000000001,0.4878100000000001 c-0.34553000000000006,0.55805 -0.55148,1.5372 -0.6707600000000001,2.98798 c-0.11910000000000003,1.45078 -0.1033,2.64399 0.12101,3.5367 c0.21967,0.90032 0.6488000000000002,1.5446400000000002 1.21963,1.8902 c0.5649700000000001,0.3424600000000001 0.9958400000000001,0.19319000000000003 1.34144,-0.36585000000000006 c0.3390100000000001,-0.55027 0.55149,-1.5370400000000002 0.6706700000000002,-2.98781 c0.11910000000000003,-1.45077 0.09760000000000003,-2.6363700000000003 -0.12101,-3.53669 c-0.22617,-0.8927100000000001 -0.59341,-1.4870700000000001 -1.15846,-1.82931 c-0.28544,-0.17369 -0.56527,-0.23417 -0.7928700000000001,-0.18344000000000005 zm96.83226,9.02464 l8.658850000000001,0 l0,6.46361 l15.79322,0 l0,7.86621 l-14.26871,21.22013 l-10.18336,0 l0,-22.4397 l-5.06104,0 l0,-6.6466400000000005 l5.06104,0 l0,-6.46361 zm30.00096,0 l24.81795,0 l0,6.34167 l-8.04904,0 l0,22.9886 l8.29279,-1.7073800000000001 l0,6.2197000000000005 l-8.29279,1.70736 l-8.71995,0 l0,-29.20828 l-8.04896,0 l0,-6.34167 zm-21.34211,13.11025 l0,14.93939 l10.06132,-14.93939 l-10.06132,0 zm-61.28224,26.89096 l5.73189,7.80511 l-2.68303,1.76845 c0.41390000000000005,0.09370000000000003 0.7970700000000001,0.16391000000000006 1.21954,0.30478000000000005 c3.36735,1.13585 6.46558,3.6471400000000003 9.26859,7.43925 c3.08943,4.18002 4.33538,8.12962 3.7195400000000003,11.95158 c-0.6381100000000001,3.81553 -3.11541,7.13271 -7.3782,9.93944 c-4.36905,2.87656 -8.76575,3.8362 -13.23213,2.80495 c-4.48879,-1.03788 -8.4402,-3.9294700000000002 -11.890600000000001,-8.59791 c-1.09346,-1.47947 -2.08606,-2.93357 -2.92689,-4.4512599999999996 c-0.8409800000000001,-1.5177 -1.56452,-3.08186 -2.19518,-4.69538 l4.87823,-3.23169 c0.47722000000000003,1.7144 1.06334,3.26449 1.7073200000000002,4.63428 c0.6319300000000001,1.3776000000000002 1.3458,2.6314900000000003 2.19517,3.7806100000000002 c1.82606,2.47052 3.82289,4.00168 5.97575,4.63427 c2.14098,0.64041 4.37871,0.3779700000000001 6.7683800000000005,-0.8536600000000001 c-1.27915,-0.56706 -2.43572,-1.33685 -3.53663,-2.2562699999999998 c-1.11272,-0.9116400000000001 -2.14366,-2.04651 -3.1097,-3.35368 c-2.43135,-3.28946 -3.6328400000000003,-6.4597 -3.5367800000000003,-9.51247 c0.08560000000000002,-3.06721 1.40111,-5.44738 3.96353,-7.13447 c0.70856,-0.46635000000000004 1.45263,-0.81816 2.1951,-1.09759 l-3.96338,-5.36601 l6.82948,-4.51233 zm155.61445,11.28093 l6.64642,5.12211 l10.61011,24.87879 l-5.3049800000000005,7.866 l-19.14691,-14.63459 l-2.6221,3.9025499999999997 l-5.67087,-4.32931 l2.68304,-3.96363 l-5.54898,-4.20735 l4.57336,-6.70751 l5.48787,4.26843 l8.29304,-12.19549 zm-151.04125,6.15861 c-1.03302,0.06830000000000001 -2.13258,0.5167 -3.29278,1.28063 c-1.54677,1.01836 -2.396,2.11579 -2.6219400000000004,3.35367 c-0.24861000000000003,1.23145 0.13655,2.62036 1.2194800000000001,4.08558 c1.07231,1.45078 2.27682,2.28065 3.5976500000000002,2.49998 c1.29833,0.21288 2.72162,-0.20098000000000002 4.26839,-1.21956 c1.54702,-1.01836 2.4346,-2.1224 2.68305,-3.35365 c0.22617,-1.23789 -0.14829000000000003,-2.6348000000000003 -1.2194800000000001,-4.08558 c-1.083,-1.46502 -2.29931,-2.28709 -3.59764,-2.5 c-0.3304000000000001,-0.05470000000000001 -0.6923200000000002,-0.08390000000000002 -1.03673,-0.06040000000000001 zm153.66311,2.62215 l-5.24396,7.74402 l12.68326,9.75641 l-7.4393,-17.50043 zm-199.57906,48.84283 l120.79628,68.53866 c1.56406,0.94791 1.9295499999999999,0.6025200000000001 1.70734,-1.0366 l-2.56108,-48.05017 c-0.06970000000000003,-1.55068 -0.27982000000000007,-2.18211 -1.8901400000000002,-2.4391 l-118.0524,-17.01279 zm249.76366,0.12100000000000001 l-122.62575,16.95175 c-1.61801,0.23844000000000004 -1.3259,1.03281 -1.34152,2.19518 l2.6221,48.90401 c0.13476000000000002,1.48384 0.09140000000000002,2.01584 1.8901700000000001,1.09758 l119.455,-69.14852 zm-76.77065,21.09822 l8.96372,9.93935 l7.0123,-4.14643 l1.95126,2.19516 l-18.41523,10.91492 l-2.98773,1.76837 l-18.41523,10.91503 l-1.95132,-2.13429 l7.01238,-4.14644 l-7.13436,-7.8051 l-6.58547,4.81722 l-1.95134,-2.13419 l6.58572,-4.75624 l7.50008,-4.4514 l9.02466,9.9394 l3.96354,-2.37818 l2.98782,-1.76836 l3.96362,-2.37807 l-7.07341,-7.8051 l-6.64665,4.81722 l-1.8900700000000001,-2.1343 l6.58547,-4.81711 l7.50024,-4.45146 zm-80.61231,1.46347 c2.3727,0.10779000000000002 4.51511,0.9278000000000001 6.52469,2.43904 c2.23116,1.6779700000000002 3.17588,3.48766 2.8050800000000002,5.488 c-0.37120000000000003,2.00045 -2.0271,4.00046 -4.93931,5.97588 c-1.73215,1.17494 -3.52198,1.97755 -5.3049800000000005,2.50001 l2.07321,1.58545 l-4.6954,3.17079 l-4.14635,-3.10982 l1.52443,-1.03661 c-2.5969800000000003,-0.17033 -4.94267,-1.01976 -7.07333,-2.6220600000000003 c-0.80232,-0.6033000000000001 -1.53014,-1.18988 -2.1343199999999998,-1.8293300000000001 c-0.6120400000000001,-0.6339600000000001 -1.1331,-1.31339 -1.58538,-2.01225 l3.35388,-2.2561299999999997 c0.35511000000000004,0.7646600000000001 0.75556,1.40883 1.2194800000000001,2.01225 c0.47184000000000004,0.59791 1.01977,1.17517 1.6463100000000002,1.64642 c1.31417,0.9883299999999999 2.7663200000000003,1.4940600000000002 4.2684,1.52437 c1.51009,0.024700000000000003 3.04465,-0.46856000000000003 4.69539,-1.40243 c-0.9241900000000001,-0.11621000000000002 -1.7706400000000002,-0.30451000000000006 -2.56116,-0.6098100000000001 c-0.79057,-0.30530000000000007 -1.50754,-0.7023400000000001 -2.19501,-1.21952 c-1.7499700000000002,-1.31586 -2.6206,-2.78937 -2.62209,-4.32946 c0.019100000000000002,-1.5396400000000001 0.91928,-2.88918 2.6828700000000003,-4.08546 c1.9495900000000002,-1.32237 4.09866,-1.93005 6.46359,-1.8293300000000001 zm1.03673,3.6586700000000003 c-0.9236400000000001,0.06850000000000002 -1.87541,0.44520000000000004 -2.92689,1.15855 c-1.05978,0.7188400000000001 -1.68514,1.41803 -1.82929,2.07321 c-0.13663,0.6497900000000002 0.20375000000000001,1.2489400000000002 0.9755599999999999,1.8293400000000002 c0.7717900000000001,0.5803900000000001 1.58441,0.8563900000000001 2.50005,0.7927200000000001 c0.92348,-0.06960000000000002 1.92827,-0.5006700000000001 2.9879,-1.21952 c1.05164,-0.7133400000000001 1.62413,-1.3570600000000002 1.76835,-2.01224 c0.14440000000000003,-0.6552900000000002 -0.14241000000000004,-1.3099100000000001 -0.9146000000000001,-1.8904200000000002 c-0.77197,-0.58028 -1.6374400000000002,-0.80081 -2.56108,-0.7316400000000002 z" id="path3922" fill="#dadada" fill-opacity="1"/>
  </g></g></svg>